<?xml version="1.0" encoding="utf-8"?>
<!-- Generator: Adobe Illustrator 15.0.0, SVG Export Plug-In . SVG Version: 6.00 Build 0)  -->
<!DOCTYPE svg PUBLIC "-//W3C//DTD SVG 1.1//EN" "http://www.w3.org/Graphics/SVG/1.1/DTD/svg11.dtd">
<svg version="1.1" id="Livello_1" xmlns="http://www.w3.org/2000/svg" xmlns:xlink="http://www.w3.org/1999/xlink" x="0px" y="0px"
	 width="402px" height="314px" viewBox="0 0 402 314" enable-background="new 0 0 402 314" xml:space="preserve">
<rect x="59.08" y="89.084" fill="#E00200" width="259.25" height="126"/>
<g>
	<defs>
		<rect id="SVGID_1_" x="-379.42" y="-688.447" width="1190.561" height="1683.781"/>
	</defs>
	<clipPath id="SVGID_2_">
		<use xlink:href="#SVGID_1_"  overflow="visible"/>
	</clipPath>
	<path clip-path="url(#SVGID_2_)" fill="#E00200" d="M74.08,104.459c0-8.492-6.884-15.377-15.376-15.377
		c-8.49,0-15.374,6.885-15.374,15.377s6.884,15.375,15.374,15.375C67.196,119.834,74.08,112.951,74.08,104.459"/>
	<path clip-path="url(#SVGID_2_)" fill="#E00200" d="M74.08,199.709c0-8.492-6.884-15.377-15.376-15.377
		c-8.49,0-15.374,6.885-15.374,15.377s6.884,15.377,15.374,15.377C67.196,215.086,74.08,208.201,74.08,199.709"/>
	<rect x="43.33" y="104.457" clip-path="url(#SVGID_2_)" fill="#E00200" width="15.376" height="95.25"/>
	<rect x="52.83" y="106.084" clip-path="url(#SVGID_2_)" fill="#E00200" width="45.25" height="81"/>
</g>
<rect x="82.08" y="172.584" fill="#FFFFFF" width="237.75" height="11.25"/>
<g>
	<defs>
		<rect id="SVGID_3_" x="-379.42" y="-688.447" width="1190.561" height="1683.781"/>
	</defs>
	<clipPath id="SVGID_4_">
		<use xlink:href="#SVGID_3_"  overflow="visible"/>
	</clipPath>
	<path clip-path="url(#SVGID_4_)" fill="#FFFFFF" d="M92.705,183.396c0,0-10.438,1.125-14,12.938c0,0-5.25-5.562,0-11.688
		c0,0-15-6.627-16.062-18.812c0,0,7.75,6.75,21.937,6.75C98.767,172.584,92.705,183.396,92.705,183.396"/>
	<path clip-path="url(#SVGID_4_)" fill="#FFFFFF" d="M135.705,105.021c0,0-13.938,5.561-9.25,19.561c0,0,3.85,8.377,4.144,16.689
		c0.294,8.311-9.332,26.521-8.77,31.396c-0.5,5.061-2.5,9.666-2.5,9.666s-0.5,2-2.687,11.5
		c-2.079,9.031-19.126,15.875-18.813,16.438c0,0,9.626-13.938,7-27.062l-0.374-10c0,0-0.876-4.438-2-7.375
		c0,0-6.438-13.562-5.75-21.812c0,0,0.938-15.939,11.938-24.625c0,0,1.687-2.064,0.562-6.875c0,0-3.25-15.189,8.938-15
		c0,0,7.5-0.75,7.874,5.061C126.017,102.582,128.859,102.557,135.705,105.021"/>
</g>
<text transform="matrix(1 0 0 1.3266 151.4155 160.0293)" fill="#FFFFFF" font-family="'Verdana'" font-size="52">moma</text>
<text transform="matrix(1 0 0 1.4672 323.0801 161.2812)" fill="#E00200" font-family="'Vrinda'" font-size="44.2618">PIX</text>
</svg>
